Land_normalized_Precision Landing17_filtered_grf
version=1
nRows=22
nColumns=37
inDegrees=yes
endheader
time		1_ground_force_vx		1_ground_force_vy		1_ground_force_vz		1_ground_force_px		1_ground_force_py		1_ground_force_pz		1_ground_torque_x		1_ground_torque_y		1_ground_torque_z		2_ground_force_vx		2_ground_force_vy		2_ground_force_vz		2_ground_force_px		2_ground_force_py		2_ground_force_pz		2_ground_torque_x		2_ground_torque_y		2_ground_torque_z		3_ground_force_vx		3_ground_force_vy		3_ground_force_vz		3_ground_force_px		3_ground_force_py		3_ground_force_pz		3_ground_torque_x		3_ground_torque_y		3_ground_torque_z		4_ground_force_vx		4_ground_force_vy		4_ground_force_vz		4_ground_force_px		4_ground_force_py		4_ground_force_pz		4_ground_torque_x		4_ground_torque_y		4_ground_torque_z		
1.241167		-3.548068		798.957685		222.815099		0.079021		0.000000		0.298087		-0.041147		9.266177		2.584175		36.938727		694.541378		214.650038		-0.148587		0.000000		0.313120		1.937405		36.430354		11.259062		5.921682		-0.060736		-0.558056		0.353401		1.255131		1.891356		0.012229		-0.000126		-0.001152		-19.732013		0.520483		-2.464310		-0.289005		1.264811		1.901388		0.014943		-0.000394		0.001866		
1.244399		-5.594362		764.542805		211.789731		0.080468		0.000000		0.299545		-0.062380		8.525980		2.361825		46.855454		680.444620		198.872128		-0.149265		0.000000		0.315356		2.378300		34.538932		10.094669		5.956336		-0.146623		-0.537004		0.353381		1.255130		1.891386		0.013429		-0.000331		-0.001211		-19.709060		0.513949		-2.376066		-0.289028		1.264819		1.901415		0.015710		-0.000409		0.001894		
1.247631		-8.038039		731.482828		203.248012		0.081602		0.000000		0.299785		-0.082874		7.542965		2.095859		54.964972		668.550463		188.076556		-0.150148		0.000000		0.316925		2.733247		33.245419		9.352623		6.005347		-0.289850		-0.508885		0.353354		1.255132		1.891422		0.013786		-0.000665		-0.001168		-19.670828		0.477154		-2.300640		-0.289052		1.264829		1.901442		0.015257		-0.000370		0.001784		
1.250864		-10.602166		699.451238		198.100160		0.081921		0.000000		0.297926		-0.098595		6.505525		1.842483		59.524226		657.614118		179.038270		-0.150440		0.000000		0.317763		2.904034		32.083511		8.734906		6.074227		-0.442703		-0.499445		0.353320		1.255140		1.891463		0.012993		-0.000947		-0.001068		-19.622847		0.436001		-2.280083		-0.289077		1.264839		1.901472		0.013919		-0.000309		0.001617		
1.254096		-13.076120		669.532512		196.464071		0.081574		0.000000		0.294449		-0.107611		5.510613		1.616972		60.956067		647.134501		168.971525		-0.149855		0.000000		0.318142		2.890705		30.688997		8.013173		6.143567		-0.556104		-0.516391		0.353284		1.255152		1.891507		0.011018		-0.000997		-0.000926		-19.579733		0.417690		-2.327890		-0.289105		1.264845		1.901503		0.012538		-0.000267		0.001491		
1.257328		-15.419724		643.644210		197.809544		0.081139		0.000000		0.290727		-0.110709		4.621781		1.420349		61.188467		637.387645		157.096846		-0.148687		0.000000		0.318410		2.783883		28.999283		7.147567		6.175672		-0.599139		-0.552113		0.353249		1.255165		1.891549		0.008110		-0.000787		-0.000725		-19.557770		0.430512		-2.419284		-0.289137		1.264848		1.901537		0.012023		-0.000265		0.001487		
1.260561		-17.710153		623.553015		201.098984		0.081147		0.000000		0.288060		-0.112932		3.976337		1.282375		62.147837		629.162628		144.476402		-0.147501		0.000000		0.318797		2.687743		27.209906		6.248351		6.138029		-0.567832		-0.596741		0.353219		1.255176		1.891586		0.004742		-0.000439		-0.000461		-19.563580		0.459803		-2.506784		-0.289172		1.264846		1.901572		0.012792		-0.000301		0.001639		
1.263793		-19.986091		610.198748		205.149412		0.081740		0.000000		0.286930		-0.120104		3.667012		1.232846		64.507749		623.362513		132.741239		-0.146698		0.000000		0.319353		2.646508		25.574597		5.446077		6.023397		-0.479383		-0.649501		0.353195		1.255181		1.891614		0.001494		-0.000119		-0.000161		-19.589656		0.483499		-2.548619		-0.289204		1.264840		1.901605		0.014491		-0.000357		0.001885		
1.267025		-22.209761		603.373053		208.985138		0.082654		0.000000		0.286855		-0.132154		3.590242		1.243521		67.455041		620.568219		122.919088		-0.146282		0.000000		0.320002		2.632649		24.219717		4.797340		5.856310		-0.362028		-0.717072		0.353180		1.255179		1.891634		-0.001173		0.000073		0.000143		-19.622046		0.491352		-2.531847		-0.289232		1.264831		1.901634		0.016228		-0.000406		0.002094		
1.270258		-24.355532		602.324945		211.945450		0.083492		0.000000		0.286988		-0.143409		3.546615		1.247978		69.495489		620.917866		115.166134		-0.145978		0.000000		0.320624		2.587299		23.116700		4.287696		5.681918		-0.245389		-0.798534		0.353172		1.255170		1.891648		-0.003028		0.000131		0.000426		-19.654007		0.489631		-2.475585		-0.289253		1.264820		1.901660		0.017233		-0.000429		0.002171		
1.273490		-26.406730		606.183829		213.611466		0.084014		0.000000		0.286801		-0.149427		3.430202		1.208760		69.587967		624.038295		109.149654		-0.145526		0.000000		0.321124		2.473253		22.179181		3.879334		5.548521		-0.158214		-0.872723		0.353169		1.255158		1.891657		-0.003930		0.000112		0.000619		-19.689643		0.491873		-2.417658		-0.289267		1.264807		1.901680		0.017343		-0.000433		0.002129		
1.276722		-28.217696		614.519865		213.707929		0.084249		0.000000		0.286391		-0.151750		3.304823		1.149304		67.730125		629.314526		104.656267		-0.144876		0.000000		0.321445		2.301149		21.380864		3.555722		5.489954		-0.127221		-0.906101		0.353168		1.255146		1.891665		-0.003630		0.000084		0.000599		-19.735482		0.506492		-2.393265		-0.289275		1.264794		1.901697		0.016913		-0.000434		0.002051		
1.279955		-29.488801		627.095898		212.228149		0.084407		0.000000		0.286273		-0.156399		3.325905		1.125585		64.805828		635.939345		101.619353		-0.144167		0.000000		0.321582		2.115277		20.757116		3.316873		5.511880		-0.167577		-0.878955		0.353168		1.255138		1.891675		-0.002042		0.000062		0.000326		-19.792453		0.530998		-2.420758		-0.289277		1.264784		1.901709		0.016433		-0.000441		0.002010		
1.283187		-29.919048		643.724056		209.413844		0.084698		0.000000		0.286921		-0.168114		3.617122		1.176680		61.750904		643.075622		99.853174		-0.143538		0.000000		0.321562		1.951887		20.326815		3.156245		5.594818		-0.274733		-0.805761		0.353169		1.255135		1.891685		0.000381		-0.000019		-0.000055		-19.856387		0.555589		-2.497504		-0.289273		1.264780		1.901715		0.016097		-0.000450		0.002025		
1.286419		-29.378539		663.806860		205.695147		0.085177		0.000000		0.288388		-0.185264		4.186143		1.297140		58.905959		649.904744		98.711216		-0.142992		0.000000		0.321446		1.813299		20.005893		3.038614		5.703497		-0.417889		-0.733291		0.353173		1.255136		1.891694		0.002671		-0.000196		-0.000344		-19.917375		0.571861		-2.603658		-0.289263		1.264782		1.901716		0.015664		-0.000450		0.002048		
1.289652		-27.869426		686.353616		201.427962		0.085700		0.000000		0.290303		-0.201366		4.959511		1.455438		55.918855		655.721814		97.255467		-0.142402		0.000000		0.321304		1.673773		19.626971		2.911049		5.802244		-0.548570		-0.709812		0.353183		1.255139		1.891699		0.003991		-0.000377		-0.000488		-19.956318		0.578911		-2.711940		-0.289250		1.264787		1.901710		0.014643		-0.000425		0.001990		
1.292884		-25.491274		710.130050		196.773701		0.086062		0.000000		0.292143		-0.210500		5.864526		1.624980		52.223016		659.989675		94.813801		-0.141627		0.000000		0.321175		1.507563		19.052167		2.737043		5.861895		-0.619532		-0.750466		0.353199		1.255142		1.891699		0.004128		-0.000436		-0.000528		-19.947187		0.581177		-2.794456		-0.289236		1.264794		1.901698		0.012632		-0.000368		0.001769		
1.296116		-22.478477		734.007331		191.786580		0.086180		0.000000		0.293591		-0.209925		6.855448		1.791188		47.633582		662.354207		91.520776		-0.140633		0.000000		0.321030		1.315508		18.292011		2.527518		5.862506		-0.608457		-0.826470		0.353225		1.255145		1.891693		0.003440		-0.000357		-0.000485		-19.867865		0.582439		-2.831376		-0.289224		1.264800		1.901681		0.009565		-0.000280		0.001363		
1.299348		-19.229516		757.123094		186.617979		0.086138		0.000000		0.294638		-0.199558		7.857901		1.936786		42.587616		662.697726		88.358049		-0.139536		0.000000		0.320775		1.126498		17.528812		2.337145		5.800390		-0.530462		-0.887973		0.353256		1.255149		1.891680		0.002600		-0.000238		-0.000398		-19.714347		0.584149		-2.816302		-0.289215		1.264804		1.901662		0.005717		-0.000169		0.000817		
1.302581		-16.154408		778.878675		181.539081		0.086069		0.000000		0.295442		-0.181794		8.765508		2.043019		37.861268		661.168299		86.569545		-0.138520		0.000000		0.320301		0.974095		17.010448		2.227250		5.694127		-0.427264		-0.904736		0.353290		1.255156		1.891664		0.002208		-0.000166		-0.000351		-19.510971		0.589944		-2.755980		-0.289210		1.264806		1.901643		0.001474		-0.000045		0.000209		
1.305813		-13.481579		798.924202		176.784281		0.086059		0.000000		0.296176		-0.160889		9.534939		2.109842		34.045275		658.130124		86.857944		-0.137723		0.000000		0.319558		0.873627		16.888198		2.228853		5.580868		-0.341795		-0.887209		0.353321		1.255168		1.891645		0.002374		-0.000145		-0.000377		-19.310954		0.609562		-2.667599		-0.289209		1.264809		1.901626		-0.002753		0.000087		-0.000380		
1.309045		-11.240196		817.219832		172.430930		0.086126		0.000000		0.296961		-0.140672		10.227777		2.158021		31.200692		654.088710		88.888610		-0.137156		0.000000		0.318604		0.816176		17.110316		2.325243		5.503372		-0.297879		-0.869833		0.353346		1.255181		1.891626		0.002718		-0.000147		-0.000430		-19.183092		0.652917		-2.572351		-0.289210		1.264814		1.901613		-0.006417		0.000219		-0.000860		
